<?xml version="1.0" encoding="UTF-8"?>
<!DOCTYPE svg PUBLIC "-//W3C//DTD SVG 1.1//EN" "http://www.w3.org/Graphics/SVG/1.1/DTD/svg11.dtd">
<svg xmlns="http://www.w3.org/2000/svg" version="1.1" width="398px" height="398px" style="shape-rendering:geometricPrecision; text-rendering:geometricPrecision; image-rendering:optimizeQuality; fill-rule:evenodd; clip-rule:evenodd" xmlns:xlink="http://www.w3.org/1999/xlink">
<g><path style="opacity:0.992" fill="#0e0a0a" d="M 281.5,214.5 C 281.624,216.582 282.624,218.082 284.5,219C 284.272,219.399 283.938,219.565 283.5,219.5C 281.856,219.286 280.356,219.62 279,220.5C 277.925,223.894 276.758,227.228 275.5,230.5C 273.777,232.78 273.111,235.447 273.5,238.5C 272.689,247.56 271.356,256.56 269.5,265.5C 268.232,267.905 267.565,270.572 267.5,273.5C 266.625,275.568 265.459,277.568 264,279.5C 263.768,278.263 263.268,277.263 262.5,276.5C 264.013,267.78 265.846,259.113 268,250.5C 268.667,246.833 268.667,243.167 268,239.5C 266.226,252.607 258.726,259.44 245.5,260C 231.759,262.646 219.426,259.812 208.5,251.5C 207.833,250.5 207.167,249.5 206.5,248.5C 205.132,242.386 202.799,236.719 199.5,231.5C 195.474,229.674 192.307,230.674 190,234.5C 187.708,251.129 178.208,259.629 161.5,260C 151.411,261.435 141.744,260.101 132.5,256C 127.83,251.493 125.163,245.993 124.5,239.5C 124.631,238.624 124.298,237.957 123.5,237.5C 122.194,240.98 122.194,244.313 123.5,247.5C 123.674,249.861 124.007,252.194 124.5,254.5C 124.211,258.106 124.544,261.606 125.5,265C 124.552,265.483 123.552,265.649 122.5,265.5C 120.192,256.649 118.858,247.649 118.5,238.5C 118.868,234.956 117.868,231.956 115.5,229.5C 113.062,216.855 108.729,216.188 102.5,227.5C 102.199,222.952 104.199,219.785 108.5,218C 107.756,216.961 106.756,216.461 105.5,216.5C 106.974,215.325 108.64,214.325 110.5,213.5C 101.607,179.133 107.774,147.8 129,119.5C 148.874,99.4794 173.041,90.146 201.5,91.5C 219.967,90.1568 236.301,95.3235 250.5,107C 260.298,118.466 270.464,129.633 281,140.5C 286.498,151.489 288.998,163.156 288.5,175.5C 288.209,188.913 285.876,201.913 281.5,214.5 Z"/></g>
<g><path style="opacity:1" fill="#5c5a5b" d="M 183.5,100.5 C 185.527,100.338 187.527,100.505 189.5,101C 178.076,103.846 167.743,108.679 158.5,115.5C 149.708,120.11 141.874,126.11 135,133.5C 146.267,115.801 162.434,104.801 183.5,100.5 Z"/></g>
<g><path style="opacity:1" fill="#5c5a5b" d="M 211.5,118.5 C 206.684,118.42 202.017,117.586 197.5,116C 202.833,115.667 208.167,115.333 213.5,115C 206.32,112.892 198.987,112.058 191.5,112.5C 190.761,112.631 190.094,112.464 189.5,112C 191.717,110.725 194.051,109.725 196.5,109C 205.546,108.193 214.546,108.526 223.5,110C 225.844,110.837 227.844,112.171 229.5,114C 225.613,113.028 221.613,112.028 217.5,111C 214.167,110.333 210.833,110.333 207.5,111C 213.596,112.691 219.596,114.691 225.5,117C 220.934,118.309 216.267,118.809 211.5,118.5 Z"/></g>
<g><path style="opacity:1" fill="#1f1d1e" d="M 181.5,98.5 C 182.5,98.8333 183.167,99.5 183.5,100.5C 162.434,104.801 146.267,115.801 135,133.5C 141.874,126.11 149.708,120.11 158.5,115.5C 161.505,114.276 164.505,114.276 167.5,115.5C 168.298,115.043 168.631,114.376 168.5,113.5C 172.302,111.601 176.302,110.267 180.5,109.5C 182.614,110.36 183.78,112.027 184,114.5C 186.607,113.877 189.107,113.21 191.5,112.5C 198.987,112.058 206.32,112.892 213.5,115C 208.167,115.333 202.833,115.667 197.5,116C 202.017,117.586 206.684,118.42 211.5,118.5C 211.611,119.117 211.944,119.617 212.5,120C 211.034,120.635 209.7,121.469 208.5,122.5C 207.304,122.154 207.304,121.654 208.5,121C 206.167,120.333 203.833,120.333 201.5,121C 200.169,122.737 198.169,124.237 195.5,125.5C 198.423,126.407 202.756,126.907 208.5,127C 204.952,128.941 201.286,130.607 197.5,132C 203.833,132.333 210.167,132.667 216.5,133C 210.933,134.783 205.599,137.117 200.5,140C 203.438,139.554 206.438,139.054 209.5,138.5C 211.85,139.11 211.517,139.444 208.5,139.5C 208.281,140.675 208.614,141.675 209.5,142.5C 215.964,139.545 222.63,138.212 229.5,138.5C 227.299,139.853 226.632,141.52 227.5,143.5C 220.527,147.321 213.527,151.154 206.5,155C 212.324,153.893 217.99,152.059 223.5,149.5C 224.5,149.5 225.5,149.5 226.5,149.5C 212.276,159.449 196.943,167.616 180.5,174C 176.28,175.806 171.947,176.806 167.5,177C 175.769,171.73 183.102,165.396 189.5,158C 177.506,164.838 165.172,171.505 152.5,178C 140.268,183.356 127.601,187.189 114.5,189.5C 115.734,177.967 119.068,167.134 124.5,157C 124.452,155.967 124.119,155.634 123.5,156C 121.333,158.833 119.167,161.667 117,164.5C 118.733,155.653 122.233,147.486 127.5,140C 127.333,139.5 127.167,139 127,138.5C 124.763,140.647 122.763,142.98 121,145.5C 120.833,145 120.667,144.5 120.5,144C 131.82,116.858 152.153,101.691 181.5,98.5 Z"/></g>
<g><path style="opacity:1" fill="#201e1f" d="M 266.5,133.5 C 277.601,141.066 282.601,151.733 281.5,165.5C 281.531,170.235 281.031,174.901 280,179.5C 279.667,179.833 279.333,180.167 279,180.5C 276.874,174.705 273.54,169.705 269,165.5C 268.206,168.471 267.539,171.471 267,174.5C 265.274,170.047 263.274,165.714 261,161.5C 260.951,156.968 260.118,152.634 258.5,148.5C 258.915,153.497 258.415,158.497 257,163.5C 254.861,166.939 252.361,170.106 249.5,173C 247.918,172.807 246.584,171.974 245.5,170.5C 245.5,170.167 245.5,169.833 245.5,169.5C 246.329,168.668 247.162,169.001 248,170.5C 248.885,167.274 250.219,164.274 252,161.5C 253.368,158.262 253.701,154.928 253,151.5C 249.593,156.929 245.093,160.763 239.5,163C 244.926,156.693 248.426,149.527 250,141.5C 239.741,153.42 227.908,163.587 214.5,172C 210.648,174.267 206.648,175.933 202.5,177C 209.308,170.862 216.141,164.695 223,158.5C 224.333,156.5 225.667,154.5 227,152.5C 227.74,151.251 227.573,150.251 226.5,149.5C 225.5,149.5 224.5,149.5 223.5,149.5C 227.098,146.687 230.765,143.853 234.5,141C 232.037,141.22 229.704,142.054 227.5,143.5C 226.632,141.52 227.299,139.853 229.5,138.5C 222.63,138.212 215.964,139.545 209.5,142.5C 208.614,141.675 208.281,140.675 208.5,139.5C 211.517,139.444 211.85,139.11 209.5,138.5C 213.773,136.364 218.106,134.197 222.5,132C 218.181,131.24 213.848,130.573 209.5,130C 214.849,128.563 220.183,127.063 225.5,125.5C 215.455,122.867 205.455,122.867 195.5,125.5C 198.169,124.237 200.169,122.737 201.5,121C 203.833,120.333 206.167,120.333 208.5,121C 207.304,121.654 207.304,122.154 208.5,122.5C 209.7,121.469 211.034,120.635 212.5,120C 211.944,119.617 211.611,119.117 211.5,118.5C 216.267,118.809 220.934,118.309 225.5,117C 219.596,114.691 213.596,112.691 207.5,111C 210.833,110.333 214.167,110.333 217.5,111C 221.613,112.028 225.613,113.028 229.5,114C 227.844,112.171 225.844,110.837 223.5,110C 214.546,108.526 205.546,108.193 196.5,109C 194.051,109.725 191.717,110.725 189.5,112C 190.094,112.464 190.761,112.631 191.5,112.5C 189.107,113.21 186.607,113.877 184,114.5C 183.78,112.027 182.614,110.36 180.5,109.5C 190.668,105.523 201.335,103.356 212.5,103C 196.373,100.866 181.706,104.366 168.5,113.5C 168.631,114.376 168.298,115.043 167.5,115.5C 164.505,114.276 161.505,114.276 158.5,115.5C 167.743,108.679 178.076,103.846 189.5,101C 187.527,100.505 185.527,100.338 183.5,100.5C 183.167,99.5 182.5,98.8333 181.5,98.5C 197.911,95.385 214.245,96.2184 230.5,101C 235.05,102.959 239.383,105.292 243.5,108C 251.453,116.442 259.12,124.942 266.5,133.5 Z"/></g>
<g><path style="opacity:1" fill="#595758" d="M 180.5,109.5 C 176.302,110.267 172.302,111.601 168.5,113.5C 181.706,104.366 196.373,100.866 212.5,103C 201.335,103.356 190.668,105.523 180.5,109.5 Z"/></g>
<g><path style="opacity:1" fill="#060405" d="M 266.5,133.5 C 267.141,134.482 267.807,135.482 268.5,136.5C 268.167,136.833 267.833,137.167 267.5,137.5C 263.221,136.726 258.887,136.226 254.5,136C 254.352,130.744 252.686,126.077 249.5,122C 254.008,121.658 256.675,123.825 257.5,128.5C 258.689,129.429 260.022,129.762 261.5,129.5C 261.5,130.833 261.5,132.167 261.5,133.5C 263.167,133.5 264.833,133.5 266.5,133.5 Z"/></g>
<g><path style="opacity:1" fill="#595858" d="M 209.5,138.5 C 206.438,139.054 203.438,139.554 200.5,140C 205.599,137.117 210.933,134.783 216.5,133C 210.167,132.667 203.833,132.333 197.5,132C 201.286,130.607 204.952,128.941 208.5,127C 202.756,126.907 198.423,126.407 195.5,125.5C 205.455,122.867 215.455,122.867 225.5,125.5C 220.183,127.063 214.849,128.563 209.5,130C 213.848,130.573 218.181,131.24 222.5,132C 218.106,134.197 213.773,136.364 209.5,138.5 Z"/></g>
<g><path style="opacity:1" fill="#070506" d="M 194.5,137.5 C 195.873,137.343 197.207,137.51 198.5,138C 179.803,144.391 162.803,153.724 147.5,166C 146.833,166.667 146.167,166.667 145.5,166C 158.846,151.328 175.179,141.828 194.5,137.5 Z"/></g>
<g><path style="opacity:1" fill="#504e4f" d="M 260.5,143.5 C 263.051,145.578 264.884,148.244 266,151.5C 266.253,148.8 266.253,146.133 266,143.5C 270.214,146.933 272.547,151.266 273,156.5C 271.92,154.004 270.586,151.67 269,149.5C 269.578,153.168 269.411,156.834 268.5,160.5C 266.083,154.669 263.417,149.002 260.5,143.5 Z"/></g>
<g><path style="opacity:1" fill="#5a5859" d="M 223.5,149.5 C 217.99,152.059 212.324,153.893 206.5,155C 213.527,151.154 220.527,147.321 227.5,143.5C 229.704,142.054 232.037,141.22 234.5,141C 230.765,143.853 227.098,146.687 223.5,149.5 Z"/></g>
<g><path style="opacity:1" fill="#555354" d="M 270.5,141.5 C 275.672,144.86 278.505,149.526 279,155.5C 276.311,150.667 273.478,146 270.5,141.5 Z"/></g>
<g><path style="opacity:1" fill="#5b595a" d="M 240.5,145.5 C 241.239,145.369 241.906,145.536 242.5,146C 238.833,149.667 235.167,153.333 231.5,157C 229.945,158.289 228.279,158.956 226.5,159C 231.062,154.269 235.729,149.769 240.5,145.5 Z"/></g>
<g><path style="opacity:1" fill="#585656" d="M 255.5,146.5 C 257.287,153.363 256.454,160.029 253,166.5C 253.99,159.916 254.823,153.25 255.5,146.5 Z"/></g>
<g><path style="opacity:1" fill="#5a5859" d="M 186.5,152.5 C 187.552,152.351 188.552,152.517 189.5,153C 179.144,158.347 168.811,163.347 158.5,168C 167.187,161.494 176.52,156.327 186.5,152.5 Z"/></g>
<g><path style="opacity:1" fill="#f2bb98" d="M 245.5,169.5 C 245.5,169.833 245.5,170.167 245.5,170.5C 243.38,174.454 240.38,177.621 236.5,180C 240.236,180.61 243.903,180.277 247.5,179C 251.615,176.552 255.448,173.719 259,170.5C 261.122,174.198 262.455,178.198 263,182.5C 263.366,191.623 264.533,200.623 266.5,209.5C 263.15,209.665 259.817,209.498 256.5,209C 254.022,204.52 250.355,201.52 245.5,200C 233.682,198.319 222.348,199.819 211.5,204.5C 210.167,204.5 208.833,204.5 207.5,204.5C 207.5,205.5 207.5,206.5 207.5,207.5C 201.687,207.344 201.354,208.011 206.5,209.5C 207.298,209.957 207.631,210.624 207.5,211.5C 203.624,212.901 199.624,213.901 195.5,214.5C 177.845,209.848 159.845,207.682 141.5,208C 150.542,204.074 159.875,203.407 169.5,206C 173.716,207.684 178.049,208.851 182.5,209.5C 182.759,206.52 181.426,204.687 178.5,204C 167.873,199.784 156.873,198.45 145.5,200C 141.22,201.947 137.887,204.947 135.5,209C 132.146,209.455 128.813,209.955 125.5,210.5C 126.206,204.343 127.54,198.343 129.5,192.5C 156.795,187.565 183.129,179.732 208.5,169C 199.573,177.04 189.239,182.54 177.5,185.5C 181.294,187.823 185.461,188.823 190,188.5C 210.164,186.835 228.664,180.501 245.5,169.5 Z"/></g>
<g><path style="opacity:1" fill="#dcae91" d="M 211.5,204.5 C 210.032,205.779 209.365,207.446 209.5,209.5C 217.686,206.363 226.186,204.696 235,204.5C 240.314,203.921 245.148,205.087 249.5,208C 235.412,208.422 221.412,209.588 207.5,211.5C 207.631,210.624 207.298,209.957 206.5,209.5C 201.354,208.011 201.687,207.344 207.5,207.5C 207.5,206.5 207.5,205.5 207.5,204.5C 208.833,204.5 210.167,204.5 211.5,204.5 Z"/></g>
<g><path style="opacity:1" fill="#646369" d="M 188.5,215.5 C 178.875,214.134 169.208,213.134 159.5,212.5C 154.833,212.5 150.167,212.5 145.5,212.5C 140.637,212.819 135.97,212.486 131.5,211.5C 147.873,210.132 164.206,210.632 180.5,213C 183.457,213.279 186.123,214.113 188.5,215.5 Z"/></g>
<g><path style="opacity:1" fill="#686b6d" d="M 275.5,216.5 C 270.361,214.638 265.027,213.471 259.5,213C 247.326,212.831 235.326,212.331 223.5,211.5C 240.626,209.733 257.626,210.566 274.5,214C 275.252,214.671 275.586,215.504 275.5,216.5 Z"/></g>
<g><path style="opacity:1" fill="#2e211b" d="M 145.5,212.5 C 150.167,212.5 154.833,212.5 159.5,212.5C 161.631,213.314 163.964,213.814 166.5,214C 165.906,214.464 165.239,214.631 164.5,214.5C 154.011,213.866 143.677,214.699 133.5,217C 131.963,218.707 130.296,220.207 128.5,221.5C 129.63,219.685 130.296,217.685 130.5,215.5C 135.649,214.658 140.649,213.658 145.5,212.5 Z"/></g>
<g><path style="opacity:1" fill="#484648" d="M 131.5,211.5 C 135.97,212.486 140.637,212.819 145.5,212.5C 140.649,213.658 135.649,214.658 130.5,215.5C 130.296,217.685 129.63,219.685 128.5,221.5C 127.236,227.018 127.236,232.684 128.5,238.5C 128.561,240.721 127.895,241.054 126.5,239.5C 126.915,232.99 124.249,228.323 118.5,225.5C 117.76,222.164 117.094,218.83 116.5,215.5C 116.709,214.914 117.043,214.414 117.5,214C 122.179,213.118 126.846,212.285 131.5,211.5 Z"/></g>
<g><path style="opacity:1" fill="#616160" d="M 218.5,212.5 C 219.791,212.263 220.791,212.596 221.5,213.5C 218.169,214.615 214.836,215.949 211.5,217.5C 210.688,216.007 209.355,215.34 207.5,215.5C 203.761,216.69 199.928,217.357 196,217.5C 193.134,217.7 190.634,217.033 188.5,215.5C 190.972,215.942 193.472,216.275 196,216.5C 203.345,214.331 210.845,212.998 218.5,212.5 Z"/></g>
<g><path style="opacity:1" fill="#291b16" d="M 221.5,213.5 C 232.505,213.333 243.505,213.5 254.5,214C 258.908,214.916 261.908,217.416 263.5,221.5C 261.704,220.207 260.037,218.707 258.5,217C 245.263,214.031 231.93,213.698 218.5,216C 208.592,218.98 205.592,225.146 209.5,234.5C 209.557,235.609 209.89,236.609 210.5,237.5C 209.876,237.917 209.543,238.584 209.5,239.5C 210.122,242.374 211.122,245.04 212.5,247.5C 211.348,246.375 210.348,246.375 209.5,247.5C 208.596,246.791 208.263,245.791 208.5,244.5C 206.752,237.607 206.252,230.607 207,223.5C 207.804,220.854 209.304,218.854 211.5,217.5C 214.836,215.949 218.169,214.615 221.5,213.5 Z"/></g>
<g><path style="opacity:1" fill="#130f0e" d="M 182.5,234.5 C 185.035,238.933 184.368,242.933 180.5,246.5C 181.487,243.854 182.487,241.188 183.5,238.5C 183,238.167 182.5,237.833 182,237.5C 167.916,248.911 153.416,249.411 138.5,239C 136.5,236.667 134.5,234.333 132.5,232C 140.25,221.625 150.583,216.959 163.5,218C 172.174,220.843 178.507,226.343 182.5,234.5 Z"/></g>
<g><path style="opacity:1" fill="#302924" d="M 169.5,215.5 C 173.8,214.651 178.133,215.151 182.5,217C 181.167,217.667 181.167,218.333 182.5,219C 184.167,219.333 185.833,219.667 187.5,220C 186.672,220.915 185.672,221.581 184.5,222C 185.799,227.176 185.799,231.01 184.5,233.5C 186.083,222.079 181.083,216.079 169.5,215.5 Z"/></g>
<g><path style="opacity:1" fill="#130f0f" d="M 210.5,237.5 C 209.89,236.609 209.557,235.609 209.5,234.5C 218.281,217.407 231.281,213.24 248.5,222C 252.466,224.964 256.133,228.297 259.5,232C 248.345,246.289 234.345,249.956 217.5,243C 215.004,241.334 212.671,239.5 210.5,237.5 Z"/></g>
<g><path style="opacity:1" fill="#454344" d="M 159.5,212.5 C 169.208,213.134 178.875,214.134 188.5,215.5C 190.634,217.033 193.134,217.7 196,217.5C 199.928,217.357 203.761,216.69 207.5,215.5C 209.355,215.34 210.688,216.007 211.5,217.5C 209.304,218.854 207.804,220.854 207,223.5C 206.252,230.607 206.752,237.607 208.5,244.5C 206.711,240.735 205.211,236.735 204,232.5C 198.667,225.833 193.333,225.833 188,232.5C 186.595,238.382 184.595,244.049 182,249.5C 179.089,252.588 175.589,254.588 171.5,255.5C 170.127,255.657 168.793,255.49 167.5,255C 170.442,254.856 172.776,253.689 174.5,251.5C 176.46,249.844 178.46,248.177 180.5,246.5C 184.368,242.933 185.035,238.933 182.5,234.5C 183.167,234.167 183.833,233.833 184.5,233.5C 185.799,231.01 185.799,227.176 184.5,222C 185.672,221.581 186.672,220.915 187.5,220C 185.833,219.667 184.167,219.333 182.5,219C 181.167,218.333 181.167,217.667 182.5,217C 178.133,215.151 173.8,214.651 169.5,215.5C 167.585,215.784 165.919,215.451 164.5,214.5C 165.239,214.631 165.906,214.464 166.5,214C 163.964,213.814 161.631,213.314 159.5,212.5 Z"/></g>
<g><path style="opacity:1" fill="#f2f2f1" d="M 148.5,223.5 C 149.497,223.47 150.164,223.97 150.5,225C 148.869,237.694 154.202,242.027 166.5,238C 169.169,234.664 170.669,230.831 171,226.5C 174.465,228.963 177.631,231.796 180.5,235C 169.764,245.545 157.764,247.212 144.5,240C 141.716,237.888 139.716,235.221 138.5,232C 141.376,228.624 144.709,225.791 148.5,223.5 Z"/></g>
<g><path style="opacity:1" fill="#f3f4f3" d="M 240.5,224.5 C 241.251,223.427 242.251,223.26 243.5,224C 247.295,226.213 250.628,228.88 253.5,232C 251.116,237.382 247.116,241.049 241.5,243C 229.714,246.846 219.714,244.18 211.5,235C 214.369,231.796 217.535,228.963 221,226.5C 222.363,239.348 228.696,242.681 240,236.5C 242.971,232.446 243.138,228.446 240.5,224.5 Z"/></g>
<g><path style="opacity:1" fill="#434243" d="M 218.5,212.5 C 219.919,211.549 221.585,211.216 223.5,211.5C 235.326,212.331 247.326,212.831 259.5,213C 265.027,213.471 270.361,214.638 275.5,216.5C 275.345,219.609 274.678,222.609 273.5,225.5C 270.53,226.637 268.364,228.637 267,231.5C 266.461,238.616 264.461,245.283 261,251.5C 258.293,255.035 254.793,256.202 250.5,255C 258.896,252.718 263.396,247.218 264,238.5C 264.818,232.651 264.652,226.985 263.5,221.5C 261.908,217.416 258.908,214.916 254.5,214C 243.505,213.5 232.505,213.333 221.5,213.5C 220.791,212.596 219.791,212.263 218.5,212.5 Z"/></g>
<g><path style="opacity:1" fill="#7b3525" d="M 282.5,227.5 C 280.648,228.52 279.315,230.02 278.5,232C 281.526,237.686 282.026,243.52 280,249.5C 279.346,250.696 278.846,250.696 278.5,249.5C 279.926,245.098 279.759,240.765 278,236.5C 277.586,236.043 277.086,235.709 276.5,235.5C 275.265,236.34 274.265,237.34 273.5,238.5C 273.111,235.447 273.777,232.78 275.5,230.5C 277.63,228.873 279.63,227.04 281.5,225C 282.5,224.333 283.5,224.333 284.5,225C 283.619,225.708 282.953,226.542 282.5,227.5 Z"/></g>
<g><path style="opacity:1" fill="#793525" d="M 115.5,229.5 C 117.868,231.956 118.868,234.956 118.5,238.5C 117.833,237.833 117.167,237.167 116.5,236.5C 116.217,235.711 115.717,235.044 115,234.5C 112.928,239.24 111.928,244.24 112,249.5C 109.976,243.508 110.476,237.674 113.5,232C 112.35,229.684 110.683,227.85 108.5,226.5C 107.386,224.647 108.052,224.147 110.5,225C 112.037,226.707 113.704,228.207 115.5,229.5 Z"/></g>
<g><path style="opacity:1" fill="#735d50" d="M 124.5,239.5 C 123.527,241.948 123.194,244.615 123.5,247.5C 122.194,244.313 122.194,240.98 123.5,237.5C 124.298,237.957 124.631,238.624 124.5,239.5 Z"/></g>
<g><path style="opacity:1" fill="#edb495" d="M 283.5,219.5 C 286.324,221.8 288.157,224.8 289,228.5C 290.769,246.764 284.936,261.931 271.5,274C 269.934,274.765 268.601,274.598 267.5,273.5C 267.565,270.572 268.232,267.905 269.5,265.5C 271.936,265.683 274.103,265.016 276,263.5C 283.406,253.332 286.072,241.999 284,229.5C 283.722,228.584 283.222,227.918 282.5,227.5C 282.953,226.542 283.619,225.708 284.5,225C 283.5,224.333 282.5,224.333 281.5,225C 279.63,227.04 277.63,228.873 275.5,230.5C 276.758,227.228 277.925,223.894 279,220.5C 280.356,219.62 281.856,219.286 283.5,219.5 Z"/></g>
<g><path style="opacity:1" fill="#b57563" d="M 116.5,236.5 C 117.167,237.167 117.833,237.833 118.5,238.5C 118.858,247.649 120.192,256.649 122.5,265.5C 120.708,265.634 119.042,265.301 117.5,264.5C 119.578,259.496 119.411,254.496 117,249.5C 116.501,245.179 116.334,240.846 116.5,236.5 Z"/></g>
<g><path style="opacity:1" fill="#f0ba98" d="M 164.5,214.5 C 165.919,215.451 167.585,215.784 169.5,215.5C 181.083,216.079 186.083,222.079 184.5,233.5C 183.833,233.833 183.167,234.167 182.5,234.5C 178.507,226.343 172.174,220.843 163.5,218C 150.583,216.959 140.25,221.625 132.5,232C 134.5,234.333 136.5,236.667 138.5,239C 153.416,249.411 167.916,248.911 182,237.5C 182.5,237.833 183,238.167 183.5,238.5C 182.487,241.188 181.487,243.854 180.5,246.5C 178.46,248.177 176.46,249.844 174.5,251.5C 167.502,253.666 160.335,254.999 153,255.5C 145.378,255.738 138.712,253.405 133,248.5C 129.378,239.884 127.878,230.884 128.5,221.5C 130.296,220.207 131.963,218.707 133.5,217C 143.677,214.699 154.011,213.866 164.5,214.5 Z"/></g>
<g><path style="opacity:1" fill="#e0e0df" d="M 155.5,222.5 C 157.199,222.34 158.866,222.506 160.5,223C 161.813,226.692 160.48,228.359 156.5,228C 154.365,226.444 154.032,224.611 155.5,222.5 Z"/></g>
<g><path style="opacity:1" fill="#edb897" d="M 263.5,221.5 C 264.354,230.931 262.854,239.931 259,248.5C 255.04,252.062 250.54,254.395 245.5,255.5C 233.471,256.742 222.471,254.076 212.5,247.5C 211.122,245.04 210.122,242.374 209.5,239.5C 209.543,238.584 209.876,237.917 210.5,237.5C 212.671,239.5 215.004,241.334 217.5,243C 234.345,249.956 248.345,246.289 259.5,232C 256.133,228.297 252.466,224.964 248.5,222C 231.281,213.24 218.281,217.407 209.5,234.5C 205.592,225.146 208.592,218.98 218.5,216C 231.93,213.698 245.263,214.031 258.5,217C 260.037,218.707 261.704,220.207 263.5,221.5 Z"/></g>
<g><path style="opacity:1" fill="#ececec" d="M 227.5,222.5 C 232.159,222.015 233.492,223.848 231.5,228C 227.266,228.267 225.933,226.434 227.5,222.5 Z"/></g>
<g><path style="opacity:1" fill="#d6836b" d="M 108.5,226.5 C 110.683,227.85 112.35,229.684 113.5,232C 110.476,237.674 109.976,243.508 112,249.5C 111.928,244.24 112.928,239.24 115,234.5C 115.717,235.044 116.217,235.711 116.5,236.5C 116.334,240.846 116.501,245.179 117,249.5C 119.411,254.496 119.578,259.496 117.5,264.5C 115.549,263.284 114.049,261.618 113,259.5C 110.715,253.93 108.715,248.264 107,242.5C 106.151,237.004 106.651,231.671 108.5,226.5 Z"/></g>
<g><path style="opacity:1" fill="#322e2e" d="M 128.5,221.5 C 127.878,230.884 129.378,239.884 133,248.5C 138.712,253.405 145.378,255.738 153,255.5C 160.335,254.999 167.502,253.666 174.5,251.5C 172.776,253.689 170.442,254.856 167.5,255C 168.793,255.49 170.127,255.657 171.5,255.5C 160.356,259.303 149.023,259.47 137.5,256C 130.992,252.506 127.325,247.006 126.5,239.5C 127.895,241.054 128.561,240.721 128.5,238.5C 127.236,232.684 127.236,227.018 128.5,221.5 Z"/></g>
<g><path style="opacity:1" fill="#d08168" d="M 282.5,227.5 C 283.222,227.918 283.722,228.584 284,229.5C 286.072,241.999 283.406,253.332 276,263.5C 274.103,265.016 271.936,265.683 269.5,265.5C 271.356,256.56 272.689,247.56 273.5,238.5C 274.265,237.34 275.265,236.34 276.5,235.5C 277.086,235.709 277.586,236.043 278,236.5C 279.759,240.765 279.926,245.098 278.5,249.5C 278.846,250.696 279.346,250.696 280,249.5C 282.026,243.52 281.526,237.686 278.5,232C 279.315,230.02 280.648,228.52 282.5,227.5 Z"/></g>
<g><path style="opacity:1" fill="#f5bc98" d="M 206.5,248.5 C 206.163,252.308 206.663,255.974 208,259.5C 208.497,256.854 208.664,254.187 208.5,251.5C 219.426,259.812 231.759,262.646 245.5,260C 258.726,259.44 266.226,252.607 268,239.5C 268.667,243.167 268.667,246.833 268,250.5C 265.846,259.113 264.013,267.78 262.5,276.5C 260.977,285.569 258.144,294.236 254,302.5C 244.856,313.817 234.356,323.484 222.5,331.5C 211.212,340.428 198.545,343.261 184.5,340C 177.412,336.711 170.745,332.877 164.5,328.5C 153.902,321.069 144.735,312.069 137,301.5C 134.941,297.323 133.274,292.99 132,288.5C 130.021,276.921 127.521,265.587 124.5,254.5C 124.007,252.194 123.674,249.861 123.5,247.5C 123.194,244.615 123.527,241.948 124.5,239.5C 125.163,245.993 127.83,251.493 132.5,256C 141.744,260.101 151.411,261.435 161.5,260C 178.208,259.629 187.708,251.129 190,234.5C 192.307,230.674 195.474,229.674 199.5,231.5C 202.799,236.719 205.132,242.386 206.5,248.5 Z"/></g>
<g><path style="opacity:1" fill="#322f30" d="M 212.5,247.5 C 222.471,254.076 233.471,256.742 245.5,255.5C 246.873,255.343 248.207,255.51 249.5,256C 237.501,259.701 225.835,258.701 214.5,253C 212.234,251.574 210.568,249.74 209.5,247.5C 210.348,246.375 211.348,246.375 212.5,247.5 Z"/></g>
<g><path style="opacity:1" fill="#763820" d="M 206.5,248.5 C 207.167,249.5 207.833,250.5 208.5,251.5C 208.664,254.187 208.497,256.854 208,259.5C 206.663,255.974 206.163,252.308 206.5,248.5 Z"/></g>
<g><path style="opacity:0.969" fill="#1d1a1a" d="M 281.5,214.5 C 286.274,214.967 289.774,217.301 292,221.5C 296.617,241.365 292.284,259.031 279,274.5C 275.67,278.248 271.503,279.915 266.5,279.5C 265.715,290.691 261.882,300.691 255,309.5C 246.498,319.509 236.665,327.843 225.5,334.5C 225.5,332.5 224.5,331.5 222.5,331.5C 234.356,323.484 244.856,313.817 254,302.5C 258.144,294.236 260.977,285.569 262.5,276.5C 263.268,277.263 263.768,278.263 264,279.5C 265.459,277.568 266.625,275.568 267.5,273.5C 268.601,274.598 269.934,274.765 271.5,274C 284.936,261.931 290.769,246.764 289,228.5C 288.157,224.8 286.324,221.8 283.5,219.5C 283.938,219.565 284.272,219.399 284.5,219C 282.624,218.082 281.624,216.582 281.5,214.5 Z"/></g>
<g><path style="opacity:1" fill="#edb697" d="M 115.5,229.5 C 113.704,228.207 112.037,226.707 110.5,225C 108.052,224.147 107.386,224.647 108.5,226.5C 106.651,231.671 106.151,237.004 107,242.5C 108.715,248.264 110.715,253.93 113,259.5C 114.049,261.618 115.549,263.284 117.5,264.5C 119.042,265.301 120.708,265.634 122.5,265.5C 123.578,268.402 124.244,271.402 124.5,274.5C 120.975,274.654 118.141,273.321 116,270.5C 106.107,257.949 101.607,243.616 102.5,227.5C 108.729,216.188 113.062,216.855 115.5,229.5 Z"/></g>
<g><path style="opacity:0.991" fill="#1b1818" d="M 105.5,216.5 C 106.756,216.461 107.756,216.961 108.5,218C 104.199,219.785 102.199,222.952 102.5,227.5C 101.607,243.616 106.107,257.949 116,270.5C 118.141,273.321 120.975,274.654 124.5,274.5C 124.244,271.402 123.578,268.402 122.5,265.5C 123.552,265.649 124.552,265.483 125.5,265C 124.544,261.606 124.211,258.106 124.5,254.5C 127.521,265.587 130.021,276.921 132,288.5C 133.274,292.99 134.941,297.323 137,301.5C 144.735,312.069 153.902,321.069 164.5,328.5C 163.07,328.579 161.736,328.246 160.5,327.5C 159.438,328.425 159.438,329.425 160.5,330.5C 145.975,321.478 135.142,309.145 128,293.5C 126.971,288.856 126.138,284.19 125.5,279.5C 119.977,279.822 115.477,277.822 112,273.5C 100.897,260.186 96.23,244.852 98,227.5C 98.5578,222.349 101.058,218.682 105.5,216.5 Z"/></g>
<g><path style="opacity:1" fill="#78351f" d="M 190.5,278.5 C 190.414,279.496 190.748,280.329 191.5,281C 195.061,283.303 198.061,282.803 200.5,279.5C 201.29,278.206 202.29,277.039 203.5,276C 206.758,275.788 209.924,275.288 213,274.5C 213.425,271.328 213.091,268.328 212,265.5C 218.447,274.746 215.947,278.913 204.5,278C 201.692,283.229 197.359,284.896 191.5,283C 189.787,281.622 188.453,279.955 187.5,278C 184.5,277.667 181.5,277.333 178.5,277C 175.837,273.439 176.003,269.939 179,266.5C 178.578,269.098 178.578,271.764 179,274.5C 181.74,275.282 184.574,275.782 187.5,276C 188.942,276.377 189.942,277.21 190.5,278.5 Z"/></g>
<g><path style="opacity:1" fill="#c97463" d="M 190.5,278.5 C 193.764,279.324 197.098,279.658 200.5,279.5C 198.061,282.803 195.061,283.303 191.5,281C 190.748,280.329 190.414,279.496 190.5,278.5 Z"/></g>
<g><path style="opacity:1" fill="#1e1714" d="M 162.5,294.5 C 167.701,296.302 173.034,297.802 178.5,299C 189.5,299.667 200.5,299.667 211.5,299C 216.945,298.294 222.112,296.794 227,294.5C 229.748,295.194 230.582,296.694 229.5,299C 218.117,301.313 206.617,302.813 195,303.5C 183.772,302.586 172.606,301.253 161.5,299.5C 161.366,297.708 161.699,296.042 162.5,294.5 Z"/></g>
<g><path style="opacity:1" fill="#ca6f57" d="M 183.5,309.5 C 191.528,309.169 199.528,309.502 207.5,310.5C 200.442,313.865 193.109,314.365 185.5,312C 184.244,311.583 183.577,310.75 183.5,309.5 Z"/></g>
<g><path style="opacity:1" fill="#222a38" d="M 193.5,376.5 C 195.557,378.856 198.224,379.856 201.5,379.5C 203.167,379.5 204.833,379.5 206.5,379.5C 176.438,381.933 147.772,376.6 120.5,363.5C 122.253,361.777 124.253,360.277 126.5,359C 136.535,356.606 146.535,354.106 156.5,351.5C 158.079,359.732 160.412,367.732 163.5,375.5C 164.365,376.583 165.365,376.749 166.5,376C 169.631,371.867 173.131,368.034 177,364.5C 177.923,367.122 179.089,369.622 180.5,372C 185.301,372.984 189.468,375.15 193,378.5C 193.464,377.906 193.631,377.239 193.5,376.5 Z"/></g>
<g><path style="opacity:0.999" fill="#212a38" d="M 272.5,362.5 C 252.515,372.831 231.181,378.498 208.5,379.5C 212.022,376.634 214.355,372.967 215.5,368.5C 217.074,367.369 218.741,367.202 220.5,368C 223.35,370.682 226.016,373.516 228.5,376.5C 231.778,368.848 233.778,360.848 234.5,352.5C 244.775,354.818 255.108,356.984 265.5,359C 267.886,360.193 270.22,361.36 272.5,362.5 Z"/></g>
<g><path style="opacity:1" fill="#0f0c0d" d="M 164.5,328.5 C 170.745,332.877 177.412,336.711 184.5,340C 198.545,343.261 211.212,340.428 222.5,331.5C 224.5,331.5 225.5,332.5 225.5,334.5C 227.667,335.198 229.5,336.531 231,338.5C 232.178,341.533 233.844,344.199 236,346.5C 247.454,349.572 258.954,352.405 270.5,355C 272.846,356.013 274.513,357.679 275.5,360C 275.252,361.749 274.252,362.582 272.5,362.5C 270.22,361.36 267.886,360.193 265.5,359C 255.108,356.984 244.775,354.818 234.5,352.5C 233.778,360.848 231.778,368.848 228.5,376.5C 226.016,373.516 223.35,370.682 220.5,368C 218.741,367.202 217.074,367.369 215.5,368.5C 214.355,372.967 212.022,376.634 208.5,379.5C 207.833,379.5 207.167,379.5 206.5,379.5C 207.713,376.775 209.546,374.441 212,372.5C 212.774,368.853 213.441,365.186 214,361.5C 214.561,360.978 215.228,360.645 216,360.5C 219.934,364.434 223.934,368.434 228,372.5C 229.295,366.357 230.462,360.191 231.5,354C 231.368,345.158 227.034,340.325 218.5,339.5C 218.426,343.161 219.426,343.828 221.5,341.5C 222.631,343.074 222.798,344.741 222,346.5C 217.506,354.146 212.506,361.48 207,368.5C 205.14,372.22 203.307,375.886 201.5,379.5C 198.224,379.856 195.557,378.856 193.5,376.5C 193.631,377.239 193.464,377.906 193,378.5C 189.468,375.15 185.301,372.984 180.5,372C 179.089,369.622 177.923,367.122 177,364.5C 173.131,368.034 169.631,371.867 166.5,376C 165.365,376.749 164.365,376.583 163.5,375.5C 160.412,367.732 158.079,359.732 156.5,351.5C 146.535,354.106 136.535,356.606 126.5,359C 124.253,360.277 122.253,361.777 120.5,363.5C 117.658,363.472 116.491,362.138 117,359.5C 118.938,356.894 121.438,355.061 124.5,354C 135.162,351.334 145.828,348.667 156.5,346C 158.377,343.749 159.877,341.249 161,338.5C 162.214,336.951 163.714,335.785 165.5,335C 163.76,333.483 162.094,331.983 160.5,330.5C 159.438,329.425 159.438,328.425 160.5,327.5C 161.736,328.246 163.07,328.579 164.5,328.5 Z"/></g>
<g><path style="opacity:1" fill="#f3bb98" d="M 211.5,342.5 C 213.121,345.106 215.454,347.106 218.5,348.5C 210.841,357.812 204.174,367.812 198.5,378.5C 189.978,368.479 181.644,358.312 173.5,348C 176.242,346.88 178.742,345.38 181,343.5C 189.041,345.511 197.208,346.011 205.5,345C 207.723,344.434 209.723,343.6 211.5,342.5 Z"/></g>
<g><path style="opacity:1" fill="#1c2634" d="M 206.5,379.5 C 204.833,379.5 203.167,379.5 201.5,379.5C 203.307,375.886 205.14,372.22 207,368.5C 212.506,361.48 217.506,354.146 222,346.5C 222.798,344.741 222.631,343.074 221.5,341.5C 219.426,343.828 218.426,343.161 218.5,339.5C 227.034,340.325 231.368,345.158 231.5,354C 230.462,360.191 229.295,366.357 228,372.5C 223.934,368.434 219.934,364.434 216,360.5C 215.228,360.645 214.561,360.978 214,361.5C 213.441,365.186 212.774,368.853 212,372.5C 209.546,374.441 207.713,376.775 206.5,379.5 Z"/></g>
<g><path style="opacity:1" fill="#1d2534" d="M 193.5,376.5 C 189.823,373.66 185.823,371.327 181.5,369.5C 180.723,366.466 179.389,363.8 177.5,361.5C 173.293,364.881 169.293,368.547 165.5,372.5C 159.88,361.409 160.213,350.575 166.5,340C 169.502,337.878 172.336,338.045 175,340.5C 175.432,341.6 174.932,342.267 173.5,342.5C 172.446,342.32 171.446,341.987 170.5,341.5C 169.752,345.071 170.585,348.405 173,351.5C 180.069,359.726 186.902,368.06 193.5,376.5 Z"/></g>
</svg>
